# xmcd
#
# Track frame offsets: 
#        150
#        15140
#        32405
#        45815
#        61150
#        72967
#        89815
#        103405
#        120537
#        137060
#        154005
#        167332
#
# Disc length: 2450 seconds
#
# Revision: 3
# Processed by: cddbd v1.5.2PL0 Copyright (c) Steve Scherf et al.
# Submitted via: ExactAudioCopy v0.99pb5
#
DISCID=8c09900c
DTITLE=Chris LeDoux - Horsepower
DYEAR=2003
DGENRE=Country
TTITLE0=Horsepower
TTITLE1=One Less Tornado
TTITLE2=All Wound Up
TTITLE3=A Cowboy was Born
TTITLE4=Smack Dab in the Middle
TTITLE5=The Buffalo Grass
TTITLE6=Feels Like I'm Gettin' into Something Good
TTITLE7=The Ride
TTITLE8=Rodeo Moon
TTITLE9=Between the Rainbows and the Rain
TTITLE10=Pass My Hat
TTITLE11=Blue Bonnet Blues
EXTD=released 7-22-03
EXTT0=
EXTT1=
EXTT2=
EXTT3=
EXTT4=
EXTT5=
EXTT6=
EXTT7=
EXTT8=
EXTT9=
EXTT10=
EXTT11=
PLAYORDER=
